name C:\Users\u0150099\Documents\master_thesis\3dpredictsim\Results\debug\Fal_s1_mtjc5_sc_cspx10_oy2_MTc2_MTPm_k1_d01_MTJm_nl_MG_exp5_table_d01_PF_Gefen2002_ls146_ig21.mot
datacolumns 128
datarows 4
range 0.00000000 0.03204265
endheader
time	pelvis_tilt	pelvis_list	pelvis_rotation	pelvis_tx	pelvis_ty	pelvis_tz	hip_flexion_l	hip_adduction_l	hip_rotation_l	hip_flexion_r	hip_adduction_r	hip_rotation_r	knee_angle_l	knee_angle_r	ankle_angle_l	ankle_angle_r	subtalar_angle_l	subtalar_angle_r	mtj_angle_l	mtj_angle_r	mtp_angle_l	mtp_angle_r	lumbar_extension	lumbar_bending	lumbar_rotation	arm_flex_l	arm_add_l	arm_rot_l	arm_flex_r	arm_add_r	arm_rot_r	elbow_flex_l	elbow_flex_r	pro_sup_l	pro_sup_r	glut_med1_l/activation	glut_med2_l/activation	glut_med3_l/activation	glut_min1_l/activation	glut_min2_l/activation	glut_min3_l/activation	semimem_l/activation	semiten_l/activation	bifemlh_l/activation	bifemsh_l/activation	sar_l/activation	add_long_l/activation	add_brev_l/activation	add_mag1_l/activation	add_mag2_l/activation	add_mag3_l/activation	tfl_l/activation	pect_l/activation	grac_l/activation	glut_max1_l/activation	glut_max2_l/activation	glut_max3_l/activation	iliacus_l/activation	psoas_l/activation	quad_fem_l/activation	gem_l/activation	peri_l/activation	rect_fem_l/activation	vas_med_l/activation	vas_int_l/activation	vas_lat_l/activation	med_gas_l/activation	lat_gas_l/activation	soleus_l/activation	tib_post_l/activation	flex_dig_l/activation	flex_hal_l/activation	tib_ant_l/activation	per_brev_l/activation	per_long_l/activation	per_tert_l/activation	ext_dig_l/activation	ext_hal_l/activation	ercspn_l/activation	intobl_l/activation	extobl_l/activation	glut_med1_r/activation	glut_med2_r/activation	glut_med3_r/activation	glut_min1_r/activation	glut_min2_r/activation	glut_min3_r/activation	semimem_r/activation	semiten_r/activation	bifemlh_r/activation	bifemsh_r/activation	sar_r/activation	add_long_r/activation	add_brev_r/activation	add_mag1_r/activation	add_mag2_r/activation	add_mag3_r/activation	tfl_r/activation	pect_r/activation	grac_r/activation	glut_max1_r/activation	glut_max2_r/activation	glut_max3_r/activation	iliacus_r/activation	psoas_r/activation	quad_fem_r/activation	gem_r/activation	peri_r/activation	rect_fem_r/activation	vas_med_r/activation	vas_int_r/activation	vas_lat_r/activation	med_gas_r/activation	lat_gas_r/activation	soleus_r/activation	tib_post_r/activation	flex_dig_r/activation	flex_hal_r/activation	tib_ant_r/activation	per_brev_r/activation	per_long_r/activation	per_tert_r/activation	ext_dig_r/activation	ext_hal_r/activation	ercspn_r/activation	intobl_r/activation	extobl_r/activation	
          0.00000000	         -2.90799054	         -1.62938741	          3.47494380	          0.00000000	          0.90698433	         -0.00650029	        -12.09220613	          2.68169234	          2.25371149	         31.54779641	          2.17138941	         -7.04513642	        -18.36075467	        -17.31326853	          0.61646459	         14.23165458	         -7.18078371	          4.30379877	          6.91610654	         -0.75639678	         25.03927591	         24.72679420	         -4.03161598	          0.91841734	         -1.33399953	          4.09422117	        -13.61069452	         19.30105247	         -4.61404182	        -13.49400141	          6.04765546	         35.26571815	         24.99200534	         86.51662706	         86.51662706	          0.23009313	          0.05000006	          0.05000002	          0.46365257	          0.13726874	          0.05034613	          0.05000096	          0.05000013	          0.05000008	          0.05000015	          0.05000583	          0.05540824	          0.05000042	          0.05000046	          0.05000150	          0.05000148	          0.42680714	          0.05002093	          0.05000021	          0.05000077	          0.05000049	          0.05000044	          0.22779779	          0.61082755	          0.05000003	          0.05000009	          0.05000004	          0.49650928	          0.17159058	          0.17218688	          0.14411391	          0.31519979	          0.57702400	          0.10810826	          0.71610169	          0.59406010	          0.65007441	          0.05000000	          0.35902974	          0.40584316	          0.05000027	          0.05000007	          0.05890083	          0.05000003	          0.05000002	          0.05000003	          0.05000033	          0.05000015	          0.05890084	          0.05000008	          0.05000012	          0.05000061	          0.39993203	          0.06938602	          0.09352312	          0.06938594	          0.05890088	          0.05614959	          0.09314097	          0.07228602	          0.08802164	          0.18629316	          0.05000158	          0.05003065	          0.06965036	          0.05890135	          0.07248730	          0.17200294	          0.05000020	          0.05000022	          0.21832527	          0.05000136	          0.05000054	          0.05000004	          0.05000008	          0.05000007	          0.05000006	          0.05890077	          0.06151326	          0.05000000	          0.23794484	          0.05000014	          0.05000098	          0.39049798	          0.15179798	          0.20559502	          0.38864831	          0.63630398	          0.72445785	          0.05890070	          0.06938649	          0.09159483	
          0.01068088	         -2.91110179	         -1.70896080	          3.87057816	          0.01686036	          0.90553573	         -0.00607732	        -13.11269267	          2.20482210	          1.77918898	         31.40185818	          2.38317906	         -6.99589007	        -18.14703294	        -17.60271532	         -0.65256121	         13.69494731	         -6.24015747	          4.04252562	          6.62811148	         -0.40178251	         26.90106509	         25.22064287	         -3.86440887	          1.02099342	         -1.47392101	          3.85862493	        -13.58155455	         19.37491540	         -5.48489959	        -13.46476920	          5.33399095	         36.40993737	         24.67651397	         86.51662706	         86.51662706	          0.19532282	          0.05000004	          0.05000001	          0.39358814	          0.11652554	          0.05000009	          0.05000158	          0.05000013	          0.05000009	          0.05000011	          0.05000030	          0.05089471	          0.07876813	          0.05000028	          0.05000126	          0.07606349	          0.39239206	          0.05000204	          0.05000010	          0.05000043	          0.05000029	          0.05000030	          0.19337434	          0.57784484	          0.05000001	          0.05000007	          0.05000007	          0.45367822	          0.16633335	          0.16651861	          0.14082229	          0.28574519	          0.52870081	          0.12185673	          0.64074005	          0.55646889	          0.55183938	          0.05000000	          0.30477525	          0.34451450	          0.05000002	          0.05000001	          0.05000017	          0.05000000	          0.05000005	          0.05160510	          0.05890069	          0.05890075	          0.05000019	          0.05890080	          0.05890078	          0.05890053	          0.36248655	          0.05890083	          0.07939046	          0.05890076	          0.05000045	          0.09758476	          0.10971402	          0.06136270	          0.07472058	          0.18778642	          0.05000017	          0.05000560	          0.05912528	          0.05000083	          0.06153360	          0.20500515	          0.06780753	          0.06308396	          0.42342133	          0.18635362	          0.11667002	          0.05000002	          0.05000004	          0.05000004	          0.05000003	          0.05000005	          0.05221778	          0.05000004	          0.21713676	          0.05890067	          0.05890069	          0.43594891	          0.19829078	          0.25443878	          0.32991806	          0.74133486	          0.77094918	          0.05000003	          0.05890123	          0.07775360	
          0.02136177	         -2.91144539	         -1.79400229	          4.25477604	          0.03397027	          0.90398558	         -0.00561208	        -14.03508181	          1.69735560	          1.28435380	         31.27386868	          2.55728249	         -6.94278398	        -18.10825505	        -18.70054026	         -2.00615615	         12.76445295	         -5.18826996	          3.68158486	          6.29089417	          0.20742595	         28.83136227	         25.69769722	         -3.68351397	          1.12441367	         -1.60647684	          3.55427395	        -13.55680717	         19.38771526	         -6.37603948	        -13.45117917	          4.84752809	         37.58183831	         24.36558846	         86.51662706	         86.51662706	          0.16580679	          0.05890067	          0.05890074	          0.33411141	          0.09891692	          0.05890069	          0.05000441	          0.05007945	          0.05890061	          0.05000046	          0.05000144	          0.19368697	          0.25565344	          0.12091782	          0.05890791	          0.12537595	          0.33309634	          0.05000193	          0.05890118	          0.05889940	          0.05890033	          0.05890085	          0.16415275	          0.57766300	          0.05890087	          0.05890082	          0.05890071	          0.40949093	          0.17890901	          0.18020349	          0.15119602	          0.26869156	          0.47723740	          0.10344275	          0.54391515	          0.47237861	          0.46844865	          0.10853667	          0.25871940	          0.29245348	          0.05000003	          0.05000001	          0.05000014	          0.05492951	          0.05975232	          0.06807647	          0.05000001	          0.05000005	          0.10013872	          0.05000007	          0.05000007	          0.05000007	          0.30770970	          0.05000009	          0.06739344	          0.05000003	          0.08173528	          0.08283931	          0.21295400	          0.21923032	          0.14752219	          0.25540066	          0.06938512	          0.06939425	          0.05019065	          0.05000065	          0.11382491	          0.26995899	          0.06939858	          0.06938645	          0.51959049	          0.15819299	          0.09903958	          0.08016124	          0.19010218	          0.17828823	          0.16870577	          0.06464611	          0.06289048	          0.06200879	          0.19252270	          0.05000001	          0.05000001	          0.59009611	          0.16832625	          0.21598949	          0.60861019	          0.74087784	          0.73096366	          0.05000000	          0.05000042	          0.06600393	
          0.03204265	         -2.91094439	         -1.89772080	          4.62463500	          0.05126271	          0.90243618	         -0.00512519	        -14.83483537	          1.15904965	          0.81658219	         31.01473771	          2.69771969	         -6.79275799	        -18.27719298	        -20.03493323	         -3.41377207	         11.88412780	         -4.07490524	          3.30409186	          5.91165043	          0.72464023	         30.61764208	         26.11841665	         -3.49218310	          1.24398044	         -1.73371508	          3.19113145	        -13.53902538	         19.38196842	         -7.25996412	        -13.45010358	          4.56331940	         38.77110373	         24.02580110	         86.51662706	         86.51662706	          0.14075107	          0.05000004	          0.05000002	          0.28362249	          0.08396922	          0.05000013	          0.05000069	          0.05000007	          0.05000007	          0.05000030	          0.05002139	          0.25862947	          0.34858603	          0.10264557	          0.05000682	          0.10643020	          0.37707298	          0.05890142	          0.05000056	          0.05000051	          0.05000034	          0.05000043	          0.13934700	          0.72121641	          0.05000013	          0.05000012	          0.05000005	          0.36570126	          0.15888215	          0.16356631	          0.15019790	          0.23188757	          0.40512027	          0.09249435	          0.46172186	          0.40099552	          0.39765943	          0.29257387	          0.32756533	          0.27326966	          0.05000003	          0.05000002	          0.05000003	          0.08471465	          0.05072289	          0.05778916	          0.31400647	          0.34570513	          0.42591971	          0.41762261	          0.33954877	          0.35979443	          0.26121043	          0.17033531	          0.12364761	          0.11801778	          0.06938565	          0.07032115	          0.18077366	          0.18610155	          0.12522955	          0.27440911	          0.05890012	          0.05890815	          0.19526528	          0.21676499	          0.21945379	          0.30542778	          0.05891151	          0.05890121	          0.44107303	          0.13428788	          0.18595205	          0.06804774	          0.16137505	          0.15134635	          0.14321194	          0.05487717	          0.05338684	          0.05263838	          0.30553227	          0.10669941	          0.15454677	          0.58358877	          0.14288977	          0.22506818	          0.77139232	          0.84864881	          0.70859999	          0.07505505	          0.14197831	          0.05602981	
